<?xml version="1.0" standalone="no"?>
<!DOCTYPE svg PUBLIC "-//W3C//DTD SVG 20010904//EN"
 "http://www.w3.org/TR/2001/REC-SVG-20010904/DTD/svg10.dtd">
<svg version="1.0" xmlns="http://www.w3.org/2000/svg"
 width="618.000000pt" height="618.000000pt" viewBox="0 0 618.000000 618.000000"
 preserveAspectRatio="xMidYMid meet">
<metadata>
Created by potrace 1.10, written by Peter Selinger 2001-2011
</metadata>
<g transform="translate(0.000000,618.000000) scale(0.100000,-0.100000)"
fill="#000000" stroke="none">
<path d="M2978 6168 c-3 -7 -30 -13 -69 -14 -155 -6 -288 -23 -469 -60 -106
-22 -277 -69 -328 -90 -18 -8 -41 -14 -50 -14 -10 0 -27 -7 -38 -15 -10 -8
-27 -15 -36 -15 -9 0 -29 -6 -45 -14 -15 -7 -44 -20 -63 -28 -130 -54 -297
-138 -347 -175 -17 -12 -36 -23 -41 -23 -5 0 -28 -13 -50 -30 -23 -16 -45 -30
-48 -30 -3 0 -23 -13 -44 -30 -21 -16 -42 -30 -47 -30 -5 0 -20 -12 -34 -26
-13 -14 -37 -32 -52 -40 -15 -9 -36 -23 -45 -32 -10 -9 -40 -35 -67 -57 -75
-59 -258 -239 -337 -330 -39 -44 -80 -91 -92 -105 -13 -14 -34 -43 -48 -65
-14 -22 -35 -49 -47 -59 -11 -11 -21 -23 -21 -29 0 -5 -14 -26 -30 -47 -16
-21 -30 -41 -30 -44 0 -3 -13 -25 -30 -48 -16 -22 -30 -46 -30 -51 0 -6 -6
-18 -14 -26 -29 -34 -138 -247 -181 -356 -7 -16 -19 -46 -28 -65 -8 -19 -24
-62 -35 -95 -12 -34 -25 -72 -30 -85 -9 -24 -26 -81 -56 -192 -15 -53 -35
-147 -57 -268 -43 -238 -43 -787 1 -1000 6 -30 18 -89 26 -130 21 -104 41
-177 80 -300 48 -154 54 -169 98 -272 24 -56 147 -301 167 -333 10 -16 23 -39
29 -50 6 -11 19 -33 30 -50 11 -16 23 -37 27 -45 4 -8 47 -69 97 -135 157
-209 307 -372 481 -521 75 -65 300 -236 325 -247 8 -4 29 -16 45 -27 17 -11
39 -24 50 -30 11 -6 34 -19 50 -30 17 -10 91 -49 165 -86 74 -36 144 -71 154
-76 11 -6 31 -14 45 -18 14 -5 51 -18 81 -30 91 -35 231 -79 325 -103 147 -37
196 -47 230 -47 20 0 46 -5 57 -11 75 -40 881 -40 956 0 11 6 37 11 57 11 63
0 277 55 455 116 41 14 89 30 107 35 18 5 35 14 38 19 4 6 15 10 27 10 11 0
32 6 46 14 15 8 88 44 162 81 74 36 149 75 165 85 17 11 39 24 50 30 11 6 34
19 50 30 17 11 37 23 45 27 25 11 250 182 325 247 174 149 324 312 481 521 50
66 93 127 97 135 4 8 16 29 27 45 11 17 24 39 30 50 6 11 19 34 30 50 20 31
142 276 166 333 45 104 50 118 98 272 49 153 61 203 107 435 15 77 30 251 38
458 1 10 6 15 11 12 6 -4 10 8 10 29 0 19 -5 36 -12 38 -7 3 -12 34 -13 84 -3
111 -20 297 -35 374 -28 150 -42 218 -55 265 -28 98 -106 341 -122 375 -9 19
-21 49 -28 65 -67 157 -150 320 -181 356 -8 8 -14 20 -14 26 0 5 -13 29 -30
51 -16 23 -30 44 -30 47 0 10 -150 209 -240 319 -51 62 -227 240 -305 308 -44
39 -91 80 -105 92 -14 13 -43 34 -65 48 -22 14 -49 35 -59 47 -11 11 -23 21
-29 21 -5 0 -26 14 -47 30 -21 17 -41 30 -44 30 -3 0 -25 14 -48 30 -22 17
-45 30 -50 30 -5 0 -24 11 -41 23 -38 28 -190 107 -272 142 -16 7 -48 21 -70
30 -22 10 -53 23 -70 30 -16 7 -47 20 -68 29 -21 9 -44 16 -52 16 -8 0 -29 6
-47 14 -52 21 -217 67 -328 90 -174 36 -314 54 -469 60 -39 1 -66 7 -69 14 -2
8 -35 12 -102 12 -67 0 -100 -4 -102 -12z m1656 -1399 c59 -26 109 -76 135
-135 21 -46 21 -54 21 -1569 0 -1505 0 -1523 -20 -1568 -11 -25 -40 -63 -65
-85 -88 -78 31 -73 -1650 -70 -1283 3 -1504 5 -1530 17 -55 27 -113 80 -134
124 l-21 43 0 1542 c0 1525 0 1542 20 1579 33 61 52 80 114 112 l58 31 1513 0
c1505 0 1513 0 1559 -21z"/>
<path d="M2040 4203 c-137 -61 -190 -134 -190 -260 0 -108 47 -187 144 -242
54 -31 232 -34 286 -5 104 56 160 147 160 256 0 67 -48 164 -104 210 -59 49
-226 72 -296 41z"/>
<path d="M3515 3484 c-105 -32 -184 -82 -248 -156 -27 -31 -49 -48 -56 -44 -7
5 -11 35 -10 86 1 43 -2 83 -5 89 -9 14 -492 15 -501 2 -7 -13 -7 -1549 0
-1562 4 -6 101 -9 252 -9 221 1 246 3 250 18 2 9 5 215 7 457 1 242 5 449 8
460 3 11 8 37 13 57 4 21 13 42 21 49 8 6 14 17 14 23 0 16 67 78 113 104 30
17 55 22 111 22 124 0 192 -46 235 -157 21 -55 22 -69 21 -527 0 -283 4 -477
10 -486 8 -13 48 -15 260 -15 212 0 252 2 260 15 6 9 10 206 10 485 0 419 -2
481 -19 575 -21 113 -32 151 -65 218 -40 84 -49 96 -111 156 -110 109 -235
156 -415 155 -64 0 -124 -6 -155 -15z"/>
<path d="M1887 3463 c-9 -8 -9 -1536 -1 -1557 5 -14 37 -16 250 -16 l244 0 15
23 c13 20 15 118 12 781 -2 660 -4 758 -17 766 -17 11 -493 14 -503 3z"/>
</g>
</svg>
