<?xml version="1.0" standalone="no"?>
<!DOCTYPE svg PUBLIC "-//W3C//DTD SVG 20010904//EN"
 "http://www.w3.org/TR/2001/REC-SVG-20010904/DTD/svg10.dtd">
<svg version="1.0" xmlns="http://www.w3.org/2000/svg"
 width="300.000000pt" height="300.000000pt" viewBox="0 0 300.000000 300.000000"
 preserveAspectRatio="xMidYMid meet">
<metadata>
Created by potrace 1.10, written by Peter Selinger 2001-2011
</metadata>
<g transform="translate(0.000000,300.000000) scale(0.050000,-0.050000)"
fill="#000000" stroke="none">
<path d="M2680 5988 c-2073 -250 -3289 -2464 -2369 -4313 732 -1475 2545
-2095 4005 -1369 1355 673 1996 2208 1525 3651 -424 1297 -1819 2193 -3161
2031z m109 -2040 l379 -553 41 51 c23 28 235 277 471 552 l430 502 126 0 c72
0 121 -8 115 -18 -6 -10 -249 -296 -540 -634 -315 -366 -523 -624 -515 -638 8
-13 268 -393 579 -845 311 -452 565 -827 565 -834 0 -6 -193 -11 -429 -11
l-429 0 -373 545 c-205 300 -384 556 -397 570 -18 20 -128 -97 -513 -545
l-489 -570 -128 0 c-120 0 -126 2 -98 35 210 247 1031 1205 1059 1236 37 41
34 47 -325 570 -200 291 -457 666 -572 834 l-209 305 437 0 436 0 379 -552z"/>
<path d="M1900 4294 c0 -3 408 -590 908 -1305 l907 -1299 193 -6 c105 -3 192
2 192 10 -1 9 -366 538 -812 1176 -447 638 -853 1221 -903 1295 l-91 135 -197
0 c-108 0 -197 -3 -197 -6z"/>
</g>
</svg>
