<?xml version="1.0" standalone="no"?>
<!DOCTYPE svg PUBLIC "-//W3C//DTD SVG 20010904//EN"
 "http://www.w3.org/TR/2001/REC-SVG-20010904/DTD/svg10.dtd">
<svg version="1.0" xmlns="http://www.w3.org/2000/svg"
 width="618.000000pt" height="618.000000pt" viewBox="0 0 618.000000 618.000000"
 preserveAspectRatio="xMidYMid meet">
<metadata>
Created by potrace 1.10, written by Peter Selinger 2001-2011
</metadata>
<g transform="translate(0.000000,618.000000) scale(0.100000,-0.100000)"
fill="#000000" stroke="none">
<path d="M2980 6167 c0 -10 -15 -14 -52 -14 -71 0 -278 -19 -353 -33 -102 -18
-207 -41 -265 -57 -30 -8 -80 -22 -110 -30 -30 -9 -70 -22 -88 -29 -18 -8 -40
-14 -50 -14 -9 0 -26 -7 -36 -15 -11 -8 -28 -15 -39 -15 -10 0 -31 -6 -45 -13
-15 -8 -43 -21 -62 -29 -72 -30 -107 -46 -170 -78 -96 -48 -173 -91 -191 -106
-8 -8 -20 -14 -26 -14 -5 0 -29 -13 -51 -30 -23 -16 -45 -30 -48 -30 -3 0 -23
-13 -44 -30 -21 -16 -41 -30 -45 -30 -4 0 -24 -14 -44 -31 -20 -16 -56 -46
-81 -66 -111 -87 -143 -116 -275 -248 -132 -131 -159 -161 -249 -275 -19 -25
-42 -53 -51 -62 -8 -10 -15 -21 -15 -24 0 -3 -20 -32 -45 -64 -25 -32 -45 -61
-45 -64 0 -4 -13 -25 -30 -48 -16 -22 -30 -46 -30 -51 0 -6 -6 -18 -14 -26
-29 -34 -138 -247 -181 -356 -7 -16 -19 -46 -28 -65 -8 -19 -24 -62 -35 -95
-12 -34 -25 -72 -30 -85 -5 -14 -17 -52 -26 -85 -9 -33 -23 -82 -31 -110 -14
-50 -33 -142 -56 -265 -43 -238 -43 -787 1 -1000 6 -30 18 -89 26 -130 21
-104 41 -177 80 -300 48 -154 54 -169 98 -272 24 -56 147 -301 167 -333 10
-16 23 -39 29 -50 6 -11 19 -33 30 -50 11 -16 23 -37 27 -45 4 -8 47 -69 97
-135 157 -209 307 -372 481 -521 75 -65 300 -236 325 -247 8 -4 29 -16 45 -27
17 -11 39 -24 50 -30 11 -6 34 -19 50 -30 17 -10 91 -49 165 -86 74 -36 144
-71 154 -76 11 -6 31 -14 45 -18 14 -5 51 -18 81 -30 91 -35 231 -79 325 -103
147 -37 196 -47 230 -47 20 0 46 -5 57 -11 75 -40 881 -40 956 0 11 6 37 11
57 11 34 0 83 10 230 47 94 24 234 68 325 103 30 12 67 25 81 30 14 4 34 12
45 18 10 5 80 40 154 77 74 36 149 75 165 85 17 11 39 24 50 30 11 6 34 19 50
30 17 11 37 23 45 27 25 11 250 182 325 247 174 149 324 312 481 521 50 66 93
127 97 135 4 8 16 29 27 45 11 17 24 39 30 50 6 11 19 34 30 50 20 31 142 276
166 333 45 104 50 118 98 272 49 153 72 246 107 435 12 66 29 250 34 360 1 40
7 71 14 73 15 5 15 129 -1 134 -7 3 -12 30 -13 69 -4 99 -21 287 -34 359 -22
121 -42 215 -57 268 -30 111 -47 168 -56 192 -5 13 -18 51 -30 85 -11 33 -27
76 -35 95 -9 19 -21 49 -28 65 -44 111 -151 321 -181 356 -8 8 -14 20 -14 26
0 5 -13 29 -30 51 -16 23 -30 44 -30 47 0 10 -143 201 -240 319 -33 41 -295
303 -340 340 -19 16 -69 55 -111 87 -42 32 -82 65 -89 74 -7 8 -17 15 -22 15
-6 0 -27 14 -48 30 -21 17 -41 30 -44 30 -3 0 -25 14 -48 30 -22 17 -46 30
-51 30 -6 0 -18 6 -26 14 -25 22 -206 118 -286 151 -61 26 -111 48 -137 62
-14 7 -34 13 -45 13 -10 0 -27 7 -37 15 -11 8 -28 15 -38 15 -9 0 -32 6 -50
14 -31 13 -72 25 -200 60 -55 15 -159 37 -263 56 -64 12 -269 32 -349 34 -29
1 -51 7 -54 14 -6 18 -202 17 -202 -1z m965 -1497 l0 -325 -242 -2 -243 -2
-35 -27 c-63 -47 -68 -73 -73 -316 -3 -181 -1 -219 10 -223 8 -3 143 -7 299
-8 l284 -2 0 -85 c0 -47 -4 -105 -7 -130 -7 -43 -14 -109 -22 -215 -5 -70 -27
-207 -34 -223 -6 -11 -61 -14 -259 -15 -138 -1 -255 -6 -260 -10 -4 -5 -10
-432 -13 -950 l-5 -942 -377 0 c-207 0 -380 4 -385 8 -4 5 -9 426 -10 935 -1
510 -4 935 -7 944 -3 15 -21 17 -175 16 -94 -1 -173 1 -176 4 -8 7 -6 648 1
660 3 5 81 8 175 7 94 -1 172 1 175 4 3 3 5 111 5 240 -1 135 3 254 9 281 6
27 14 74 19 105 20 130 108 298 207 398 37 36 90 71 171 111 96 48 143 60 298
78 27 3 52 8 54 10 3 2 142 3 310 2 l306 -3 0 -325z"/>
</g>
</svg>
