<?xml version="1.0" standalone="no"?>
<!DOCTYPE svg PUBLIC "-//W3C//DTD SVG 20010904//EN"
 "http://www.w3.org/TR/2001/REC-SVG-20010904/DTD/svg10.dtd">
<svg version="1.0" xmlns="http://www.w3.org/2000/svg"
 width="618.000000pt" height="618.000000pt" viewBox="0 0 618.000000 618.000000"
 preserveAspectRatio="xMidYMid meet">
<metadata>
Created by potrace 1.10, written by Peter Selinger 2001-2011
</metadata>
<g transform="translate(0.000000,618.000000) scale(0.100000,-0.100000)"
fill="#000000" stroke="none">
<path d="M2888 6168 c-3 -7 -20 -14 -39 -14 -131 -7 -305 -31 -419 -59 -30 -8
-68 -16 -85 -19 -16 -3 -61 -15 -100 -26 -38 -12 -83 -25 -100 -30 -60 -17
-173 -58 -208 -76 -16 -8 -33 -14 -38 -14 -9 0 -131 -54 -159 -71 -8 -5 -22
-12 -30 -15 -8 -3 -22 -9 -30 -14 -8 -5 -37 -21 -65 -35 -27 -14 -63 -34 -80
-45 -16 -11 -39 -24 -50 -30 -29 -15 -56 -32 -96 -62 -20 -16 -40 -28 -43 -28
-8 0 -205 -148 -221 -165 -5 -6 -32 -29 -60 -50 -27 -22 -102 -92 -165 -155
-104 -104 -162 -170 -271 -309 -40 -51 -181 -257 -192 -281 -4 -8 -17 -31 -28
-50 -49 -79 -179 -349 -179 -369 0 -7 -6 -25 -14 -39 -25 -49 -46 -102 -46
-117 0 -8 -6 -29 -14 -47 -22 -53 -68 -219 -90 -328 -30 -147 -37 -197 -48
-315 -21 -234 -8 -750 21 -803 6 -12 11 -37 11 -57 0 -63 55 -277 116 -455 14
-41 30 -89 35 -107 5 -18 14 -35 19 -38 6 -4 10 -14 10 -23 0 -23 124 -282
179 -372 11 -19 24 -42 28 -50 3 -8 18 -31 32 -50 36 -49 51 -72 57 -92 4 -10
10 -18 15 -18 6 0 13 -8 16 -17 7 -19 111 -161 149 -203 170 -189 208 -229
315 -325 141 -127 225 -192 384 -295 19 -13 113 -70 165 -100 23 -14 281 -140
315 -155 17 -7 50 -20 75 -30 25 -9 60 -23 78 -31 18 -8 39 -14 47 -14 8 0 29
-6 47 -14 47 -20 128 -42 330 -90 36 -9 85 -16 108 -16 23 0 51 -5 62 -11 25
-13 281 -31 448 -31 162 0 410 17 443 31 16 6 46 11 69 11 22 0 70 7 106 16
202 48 283 70 330 90 18 8 39 14 47 14 8 0 29 6 47 14 18 8 53 22 78 31 25 10
59 23 75 30 34 15 292 141 315 155 52 30 146 87 165 100 159 103 243 168 384
295 107 96 145 136 315 325 41 46 146 189 146 199 0 5 6 14 13 18 8 4 17 15
21 23 9 19 22 40 71 115 73 110 183 329 240 475 9 25 21 56 26 68 53 136 139
462 139 527 0 20 5 45 11 57 11 21 30 219 33 352 1 52 6 81 14 84 7 2 12 23
12 53 0 28 -4 48 -9 45 -5 -3 -11 31 -15 77 -12 181 -24 305 -35 367 -18 104
-41 211 -57 268 -35 128 -47 169 -60 200 -8 18 -14 39 -14 47 0 15 -21 68 -46
117 -8 14 -14 32 -14 39 0 19 -103 235 -154 324 -16 28 -36 64 -45 80 -54 98
-169 260 -296 416 -70 87 -268 287 -340 344 -27 21 -54 44 -60 50 -16 17 -213
165 -221 165 -3 0 -23 13 -43 28 -20 16 -43 32 -51 35 -8 4 -28 16 -45 27 -16
11 -39 24 -50 30 -11 5 -47 26 -80 45 -33 19 -66 37 -72 40 -7 3 -19 7 -25 10
-7 3 -20 9 -28 14 -28 17 -150 71 -159 71 -5 0 -22 6 -38 14 -35 18 -148 59
-208 76 -16 5 -61 18 -100 30 -38 11 -83 23 -100 26 -16 3 -55 11 -85 19 -114
28 -288 52 -419 59 -19 0 -36 7 -39 14 -3 9 -51 12 -192 12 -141 0 -189 -3
-192 -12z m1811 -1794 c25 -4 63 -16 84 -27 47 -24 112 -97 137 -155 20 -44
20 -68 17 -1171 -3 -1262 3 -1172 -77 -1243 -88 -78 52 -72 -1775 -75 l-1630
-3 -63 32 c-73 38 -125 100 -154 182 -16 47 -17 127 -18 1122 0 1045 0 1072
20 1129 41 118 117 186 235 211 47 10 3157 8 3224 -2z"/>
<path d="M1780 4312 c-13 -5 -13 -32 0 -32 5 0 118 -81 250 -180 132 -99 244
-180 248 -180 5 0 19 -12 33 -26 13 -14 43 -37 67 -51 23 -14 42 -28 42 -31 0
-4 24 -23 52 -42 29 -19 175 -126 324 -237 149 -112 277 -203 284 -203 7 0
108 71 224 158 116 87 227 167 246 179 20 12 46 33 59 47 14 14 28 26 33 26 5
0 106 73 226 163 119 90 233 173 252 184 20 12 46 33 59 47 14 14 28 26 33 26
12 0 188 133 188 142 0 5 -6 8 -12 8 -583 3 -2601 4 -2608 2z"/>
<path d="M1706 3527 c-10 -37 -7 -1661 4 -1677 8 -12 13 -11 39 8 17 12 33 22
36 22 4 0 33 20 65 45 32 25 61 45 65 45 3 0 41 26 83 58 43 31 85 62 94 67 9
6 56 37 103 70 48 33 94 65 103 70 9 6 50 35 92 65 42 30 83 60 92 65 41 25
138 92 190 132 31 24 59 43 63 43 4 0 32 19 63 43 31 23 76 55 100 70 23 15
42 33 42 40 0 12 -91 87 -105 87 -4 0 -33 20 -65 45 -32 25 -61 45 -65 45 -4
0 -32 19 -63 43 -32 23 -65 47 -74 52 -9 6 -55 37 -103 70 -47 33 -94 65 -103
70 -9 6 -42 29 -74 53 -31 23 -59 42 -63 42 -4 0 -32 19 -63 43 -53 39 -241
169 -280 192 -9 6 -42 28 -72 50 -89 65 -97 68 -104 42z"/>
<path d="M4425 3536 c-11 -6 -45 -29 -75 -51 -30 -22 -63 -44 -72 -50 -9 -5
-76 -50 -148 -100 -72 -49 -139 -94 -148 -100 -9 -5 -50 -35 -92 -65 -42 -30
-83 -59 -92 -65 -9 -5 -56 -37 -103 -70 -48 -33 -94 -64 -103 -70 -9 -5 -42
-29 -74 -52 -31 -24 -59 -43 -63 -43 -4 0 -33 -20 -65 -45 -32 -25 -61 -45
-65 -45 -14 0 -105 -75 -105 -87 0 -7 19 -25 43 -40 23 -15 68 -47 99 -70 31
-24 59 -43 63 -43 4 0 32 -19 63 -43 52 -40 149 -107 190 -132 9 -5 50 -35 92
-65 42 -30 83 -59 92 -65 31 -19 133 -90 190 -132 31 -24 59 -43 63 -43 4 0
32 -19 63 -43 60 -44 161 -115 190 -132 9 -6 30 -19 45 -29 24 -16 30 -17 38
-5 10 16 11 1655 1 1680 -6 13 -11 14 -27 5z"/>
<path d="M2985 2637 c-11 -7 -23 -16 -26 -20 -4 -5 -16 -14 -27 -20 -34 -20
-133 -88 -194 -134 -31 -24 -59 -43 -63 -43 -4 0 -32 -19 -63 -43 -57 -42
-159 -113 -190 -132 -9 -5 -50 -35 -92 -65 -42 -30 -83 -59 -92 -65 -9 -5 -56
-37 -103 -70 -48 -33 -94 -64 -103 -70 -9 -5 -51 -36 -94 -67 -42 -32 -79 -58
-83 -58 -13 0 -104 -74 -99 -82 7 -11 2641 -10 2648 1 3 5 -20 26 -52 47 -31
21 -83 58 -114 81 -31 24 -59 43 -63 43 -4 0 -32 19 -63 43 -76 56 -167 119
-197 135 -14 7 -25 17 -25 23 0 5 -5 9 -11 9 -6 0 -36 19 -67 43 -32 23 -65
47 -74 52 -31 18 -132 89 -190 132 -31 24 -59 43 -63 43 -4 0 -32 19 -63 43
-55 42 -155 112 -190 132 -10 6 -32 20 -49 33 -34 24 -58 28 -69 11 -6 -10
-44 -8 -89 5 -11 3 -29 0 -40 -7z"/>
</g>
</svg>
