<?xml version="1.0" standalone="no"?>
<!DOCTYPE svg PUBLIC "-//W3C//DTD SVG 20010904//EN"
 "http://www.w3.org/TR/2001/REC-SVG-20010904/DTD/svg10.dtd">
<svg version="1.0" xmlns="http://www.w3.org/2000/svg"
 width="618.000000pt" height="618.000000pt" viewBox="0 0 618.000000 618.000000"
 preserveAspectRatio="xMidYMid meet">
<metadata>
Created by potrace 1.10, written by Peter Selinger 2001-2011
</metadata>
<g transform="translate(0.000000,618.000000) scale(0.100000,-0.100000)"
fill="#000000" stroke="none">
<path d="M2814 6173 c10 -10 -99 -32 -166 -32 -31 -1 -69 -6 -84 -11 -14 -6
-54 -15 -88 -20 -80 -13 -218 -47 -291 -72 -16 -5 -47 -13 -68 -18 -21 -4 -44
-13 -50 -19 -6 -6 -19 -11 -29 -11 -9 0 -34 -7 -55 -16 -37 -16 -67 -29 -135
-57 -53 -22 -300 -146 -333 -167 -16 -11 -39 -24 -50 -30 -31 -15 -55 -31
-117 -77 -31 -24 -59 -43 -63 -43 -11 0 -124 -89 -230 -181 -86 -74 -259 -247
-346 -345 -37 -42 -179 -232 -179 -240 0 -3 -13 -23 -28 -43 -16 -20 -32 -43
-36 -51 -4 -8 -12 -24 -19 -35 -36 -58 -63 -103 -74 -120 -14 -24 -109 -217
-128 -260 -7 -16 -20 -46 -28 -65 -8 -19 -22 -52 -31 -73 -9 -21 -16 -44 -16
-52 0 -7 -6 -26 -14 -42 -13 -26 -21 -53 -60 -195 -43 -156 -39 -137 -66 -313
-6 -38 -15 -92 -20 -120 -11 -62 -5 -713 8 -815 13 -106 33 -200 79 -375 24
-90 103 -327 122 -363 5 -9 16 -33 24 -52 52 -119 144 -296 192 -370 39 -60
53 -82 61 -100 9 -18 169 -230 210 -279 118 -140 220 -243 335 -341 46 -40 99
-85 118 -102 19 -16 47 -36 63 -44 15 -8 28 -19 28 -24 0 -6 5 -10 11 -10 6 0
36 -19 67 -43 31 -24 64 -47 72 -50 8 -4 29 -16 45 -27 17 -11 39 -24 50 -30
11 -6 43 -24 70 -40 66 -40 211 -110 318 -153 17 -8 48 -21 67 -29 19 -9 44
-19 55 -22 11 -2 47 -14 80 -26 74 -27 147 -48 200 -60 22 -5 58 -13 80 -19
66 -17 183 -39 295 -56 146 -22 683 -22 797 0 43 8 91 15 107 15 91 0 598 144
704 199 9 5 82 41 162 80 179 88 203 101 315 176 93 62 243 171 260 190 6 6
33 29 60 50 65 51 299 285 350 350 21 28 44 55 50 60 17 16 135 173 135 180 0
4 14 24 30 45 17 21 30 41 30 45 0 3 11 21 24 38 14 18 30 43 35 57 6 14 20
39 30 55 22 34 117 223 137 273 8 17 20 47 28 65 7 17 21 52 31 77 9 25 22 56
27 70 6 14 14 39 18 55 5 17 13 44 18 60 6 17 17 55 26 85 8 30 22 80 30 111
9 31 16 67 16 82 0 14 5 38 11 54 6 15 15 64 20 108 5 44 12 94 15 110 3 17 8
165 11 330 5 303 0 368 -39 575 -6 30 -14 75 -18 100 -8 51 -26 126 -45 185
-7 22 -20 67 -30 100 -10 33 -24 77 -31 98 -29 77 -46 123 -60 155 -35 80 -48
108 -56 122 -4 8 -11 22 -14 30 -3 8 -10 22 -15 30 -5 8 -12 22 -15 30 -3 8
-10 22 -15 30 -5 8 -11 21 -14 28 -13 32 -16 39 -35 67 -11 17 -24 39 -30 50
-31 59 -146 232 -184 277 -17 20 -49 60 -71 89 -22 29 -47 59 -55 68 -9 9 -48
53 -88 98 -94 105 -264 257 -424 377 -70 53 -130 96 -133 96 -3 0 -24 14 -47
30 -22 17 -46 30 -51 30 -6 0 -18 7 -27 15 -36 32 -299 164 -420 210 -25 10
-58 23 -75 30 -36 15 -90 34 -130 45 -16 5 -61 18 -100 29 -141 42 -332 81
-445 92 -100 9 -140 18 -140 30 0 5 -117 9 -262 9 -144 0 -258 -3 -254 -7z
m531 -1187 c17 -4 59 -11 95 -15 79 -10 204 -42 320 -82 77 -27 247 -106 255
-119 4 -6 12 -10 19 -10 14 0 182 -110 230 -150 139 -118 191 -168 273 -264
52 -61 98 -118 101 -126 3 -8 17 -31 32 -50 15 -19 30 -42 33 -50 4 -8 16 -28
26 -45 11 -16 36 -64 56 -105 20 -41 43 -87 51 -102 8 -14 14 -35 14 -45 0
-10 5 -24 11 -30 6 -6 14 -26 19 -44 5 -19 18 -65 30 -104 11 -38 27 -108 35
-155 8 -47 17 -96 20 -110 9 -45 6 -460 -4 -478 -5 -9 -12 -42 -16 -72 -11
-80 -62 -269 -83 -307 -6 -12 -12 -27 -12 -34 0 -44 -193 -382 -270 -473 -74
-87 -173 -196 -179 -196 -3 0 -27 -20 -52 -44 -50 -46 -194 -158 -219 -169 -8
-4 -28 -16 -45 -27 -16 -11 -39 -24 -50 -30 -11 -5 -27 -14 -35 -19 -8 -5 -22
-12 -30 -15 -8 -3 -22 -10 -30 -15 -8 -5 -33 -17 -55 -26 -22 -10 -48 -22 -58
-27 -79 -39 -300 -96 -477 -122 -101 -15 -341 -17 -415 -3 -16 3 -61 10 -100
15 -38 5 -90 15 -115 22 -118 31 -157 43 -183 56 -16 8 -35 14 -44 14 -8 0
-27 6 -41 13 -15 8 -43 21 -62 29 -19 9 -58 27 -86 41 -55 27 -81 25 -177 -9
-20 -8 -50 -14 -65 -14 -15 -1 -38 -7 -52 -15 -14 -8 -36 -14 -49 -15 -13 0
-44 -6 -70 -14 -25 -8 -71 -21 -101 -29 -30 -8 -84 -22 -120 -31 -36 -10 -87
-23 -115 -31 -27 -7 -79 -21 -115 -30 -36 -9 -82 -21 -103 -27 -20 -6 -40 -8
-44 -4 -7 6 6 69 32 156 7 25 20 71 29 103 9 31 22 82 31 112 19 70 41 150 60
220 14 52 20 75 61 223 9 31 20 71 25 89 6 20 6 38 0 50 -5 10 -12 25 -15 33
-3 8 -10 22 -15 30 -5 8 -12 22 -15 30 -3 8 -10 22 -14 30 -5 8 -16 32 -25 53
-9 20 -23 52 -31 70 -8 17 -16 41 -19 52 -3 11 -10 34 -16 50 -58 170 -82 338
-82 560 0 197 14 316 56 470 8 28 16 59 19 70 9 42 44 131 73 187 7 14 13 33
13 41 0 8 7 20 15 27 8 7 15 20 15 30 0 10 7 23 15 30 8 7 15 19 15 26 0 8 20
43 45 80 25 36 45 67 45 70 0 16 138 182 220 264 102 102 279 242 355 280 11
6 34 19 50 29 48 31 238 121 255 121 5 0 24 6 42 14 66 28 227 69 353 89 92
14 401 17 460 3z"/>
<path d="M2985 4689 c-27 -5 -77 -12 -110 -17 -74 -11 -149 -30 -193 -48 -18
-8 -39 -14 -47 -14 -15 0 -68 -21 -117 -46 -14 -8 -33 -14 -41 -14 -8 0 -20
-7 -27 -15 -7 -8 -18 -15 -25 -15 -18 0 -102 -53 -215 -137 -146 -108 -311
-291 -397 -438 -36 -62 -113 -223 -113 -236 0 -8 -7 -24 -15 -35 -8 -10 -15
-29 -15 -42 0 -13 -5 -33 -12 -45 -6 -12 -15 -42 -19 -67 -4 -25 -12 -63 -17
-85 -32 -129 -32 -431 0 -560 5 -22 13 -60 18 -85 4 -25 13 -61 20 -80 48
-133 51 -140 105 -250 20 -41 45 -88 55 -105 44 -68 46 -92 15 -195 -14 -48
-36 -125 -60 -215 -8 -30 -22 -79 -31 -108 -8 -28 -16 -65 -17 -82 -2 -29 -1
-30 38 -27 22 1 60 9 85 16 25 8 74 21 110 30 89 23 154 41 225 61 84 25 124
22 174 -9 23 -15 52 -31 64 -36 12 -6 29 -14 37 -19 48 -27 208 -87 270 -101
19 -4 55 -12 80 -18 120 -29 272 -45 367 -38 54 3 105 8 113 9 8 2 42 6 75 10
79 10 238 52 320 84 84 34 203 93 254 127 29 20 55 36 58 36 2 0 32 21 66 47
87 66 232 213 304 308 135 180 238 409 273 605 5 30 14 75 19 100 6 25 10 119
11 210 0 166 -15 293 -45 391 -8 26 -15 54 -15 63 0 8 -7 32 -16 53 -58 136
-75 175 -85 193 -5 8 -14 26 -19 39 -33 75 -151 233 -253 335 -98 99 -242 218
-287 239 -8 4 -31 17 -50 28 -90 54 -196 100 -307 133 -29 9 -74 23 -100 31
-27 8 -61 15 -78 15 -16 0 -65 7 -108 15 -83 16 -239 18 -322 4z m-376 -694
c28 -14 81 -94 81 -120 0 -8 7 -27 15 -44 8 -17 22 -45 30 -62 8 -17 15 -35
15 -40 0 -5 14 -39 32 -76 48 -101 45 -143 -17 -224 -26 -35 -53 -68 -60 -74
-6 -5 -19 -22 -29 -36 -18 -28 -15 -38 37 -124 75 -124 298 -348 387 -388 8
-4 29 -16 45 -27 29 -19 34 -22 65 -34 8 -3 22 -10 30 -14 55 -31 86 -42 118
-42 41 0 56 14 169 158 41 52 72 82 84 82 11 0 50 -14 87 -31 202 -95 320
-156 345 -178 33 -30 35 -65 8 -166 -15 -56 -28 -80 -71 -128 -29 -32 -62 -63
-74 -68 -12 -5 -39 -20 -62 -32 -59 -34 -151 -57 -225 -57 -81 0 -236 38 -311
76 -14 8 -33 14 -41 14 -9 0 -28 6 -44 14 -15 8 -63 31 -106 53 -88 43 -92 46
-167 95 -89 58 -231 179 -308 261 -82 86 -107 117 -176 207 -97 127 -166 228
-166 244 0 8 -7 19 -15 26 -8 7 -15 19 -15 27 0 8 -6 27 -14 41 -35 64 -48
132 -47 245 1 112 20 200 50 230 6 6 11 16 11 22 1 25 108 141 150 162 53 27
146 31 189 8z"/>
</g>
</svg>
