<?xml version="1.0" standalone="no"?>
<!DOCTYPE svg PUBLIC "-//W3C//DTD SVG 20010904//EN"
 "http://www.w3.org/TR/2001/REC-SVG-20010904/DTD/svg10.dtd">
<svg version="1.0" xmlns="http://www.w3.org/2000/svg"
 width="618.000000pt" height="618.000000pt" viewBox="0 0 618.000000 618.000000"
 preserveAspectRatio="xMidYMid meet">
<metadata>
Created by potrace 1.10, written by Peter Selinger 2001-2011
</metadata>
<g transform="translate(0.000000,618.000000) scale(0.100000,-0.100000)"
fill="#000000" stroke="none">
<path d="M2640 6125 c-36 -8 -81 -14 -101 -14 -20 -1 -53 -8 -72 -16 -20 -8
-48 -15 -63 -15 -15 0 -52 -7 -83 -16 -244 -70 -308 -91 -364 -120 -16 -8 -35
-14 -42 -14 -7 0 -26 -6 -42 -14 -15 -8 -89 -45 -163 -81 -74 -36 -148 -75
-165 -85 -16 -11 -39 -24 -50 -30 -11 -6 -33 -19 -50 -30 -16 -11 -37 -23 -45
-27 -8 -3 -41 -26 -72 -50 -31 -24 -59 -43 -62 -43 -3 0 -14 -7 -23 -16 -10
-8 -45 -36 -78 -62 -146 -113 -275 -235 -394 -372 -40 -47 -83 -96 -95 -110
-53 -61 -236 -321 -236 -336 0 -2 -12 -23 -26 -45 -43 -68 -163 -314 -197
-404 -8 -22 -22 -58 -30 -80 -9 -22 -24 -65 -33 -95 -9 -30 -22 -71 -29 -90
-15 -42 -35 -120 -45 -175 -4 -22 -12 -60 -18 -85 -42 -176 -55 -327 -55 -620
0 -237 13 -436 32 -500 6 -19 11 -51 11 -70 0 -19 6 -55 14 -80 13 -41 23 -81
47 -180 17 -71 50 -175 75 -235 7 -16 20 -50 29 -75 33 -88 125 -279 180 -375
19 -33 38 -67 42 -75 12 -25 125 -192 172 -255 177 -234 390 -447 626 -626 58
-44 220 -153 260 -175 155 -85 254 -136 310 -159 65 -28 106 -46 137 -59 42
-19 294 -99 373 -119 149 -37 196 -47 230 -47 20 0 46 -5 57 -11 75 -40 784
-40 943 0 22 6 54 11 71 11 18 0 54 6 80 14 65 19 140 37 189 46 22 4 54 13
70 19 17 6 57 19 90 30 98 32 128 43 165 59 19 9 49 21 65 28 43 17 292 141
345 171 75 43 290 190 380 260 145 115 405 382 521 538 117 157 169 233 198
290 6 11 27 47 46 80 19 33 38 67 41 75 3 8 10 22 15 30 5 8 12 22 15 30 3 8
10 22 15 30 5 8 12 22 15 30 5 15 18 46 47 110 8 19 23 55 32 80 9 25 23 60
31 78 8 18 14 39 14 47 0 8 6 29 14 47 8 18 22 62 31 98 9 36 23 88 31 116 8
28 14 63 14 78 0 15 5 36 10 46 6 11 15 55 20 97 5 43 12 92 16 108 4 17 9
181 12 365 4 370 -9 509 -69 745 -6 22 -14 58 -19 80 -15 69 -50 179 -76 243
-8 18 -14 39 -14 47 0 7 -6 26 -14 42 -8 15 -21 44 -29 63 -33 78 -149 310
-158 315 -5 4 -9 12 -9 20 0 8 -19 42 -42 77 -24 35 -47 71 -53 80 -49 79
-157 229 -201 278 -189 212 -281 299 -524 498 -45 37 -189 134 -220 149 -8 4
-33 19 -55 33 -22 14 -49 30 -60 37 -24 14 -213 109 -235 117 -8 3 -22 10 -30
14 -46 26 -84 42 -98 42 -9 0 -26 7 -36 15 -11 8 -28 15 -37 15 -10 0 -30 6
-46 14 -42 20 -167 61 -223 72 -14 3 -47 11 -75 19 -78 21 -155 37 -220 46
-33 4 -80 12 -105 18 -70 16 -769 12 -850 -4z m1290 -1441 c232 -50 389 -131
521 -271 59 -62 137 -169 154 -213 4 -8 12 -28 20 -45 18 -41 42 -118 60 -196
13 -58 15 -184 15 -910 0 -527 -4 -859 -11 -884 -5 -22 -14 -60 -18 -85 -20
-99 -84 -238 -155 -335 -37 -50 -174 -184 -201 -196 -11 -5 -33 -18 -50 -28
-88 -57 -227 -105 -350 -121 -74 -10 -1555 -14 -1677 -5 -97 8 -199 35 -303
80 -16 7 -37 16 -45 19 -58 25 -153 97 -223 168 -143 146 -208 279 -247 506
-19 107 -20 164 -20 867 0 711 1 759 20 867 23 126 40 192 58 225 6 12 12 28
12 36 0 8 7 20 15 27 8 7 15 18 15 26 0 20 81 134 141 198 72 77 140 128 236
175 81 39 106 49 163 65 159 44 160 44 995 45 702 1 809 -1 875 -15z"/>
<path d="M2250 4399 c-41 -3 -85 -10 -97 -17 -12 -7 -31 -12 -42 -12 -17 0
-52 -15 -101 -42 -8 -4 -22 -11 -30 -15 -17 -7 -87 -60 -110 -83 -29 -29 -80
-98 -80 -108 0 -5 -7 -15 -15 -22 -8 -7 -15 -22 -15 -34 0 -12 -5 -27 -10 -32
-6 -6 -20 -47 -30 -90 -19 -75 -20 -121 -20 -894 0 -769 2 -819 19 -886 11
-40 24 -80 29 -90 5 -11 17 -37 28 -59 51 -110 151 -203 283 -265 24 -11 49
-20 56 -20 7 0 29 -7 49 -15 32 -13 148 -15 889 -15 814 0 855 1 914 20 121
38 186 75 264 153 102 101 156 214 176 367 12 95 8 1540 -4 1625 -13 84 -39
162 -74 225 -5 8 -13 24 -18 36 -25 57 -205 214 -245 214 -7 0 -21 7 -32 15
-10 8 -29 15 -41 15 -13 0 -40 7 -60 15 -33 13 -150 16 -823 18 -432 1 -819 0
-860 -4z m1778 -286 c148 -93 131 -290 -30 -358 -86 -35 -173 1 -234 97 -53
83 -20 198 75 260 36 23 152 24 189 1z m-781 -238 c19 -8 42 -15 50 -15 15 0
57 -17 128 -51 141 -69 300 -214 364 -334 12 -22 26 -47 30 -55 71 -127 98
-306 75 -500 -10 -87 -54 -204 -119 -319 -26 -46 -174 -198 -227 -233 -74 -49
-168 -98 -187 -98 -10 0 -26 -7 -37 -15 -10 -8 -29 -15 -41 -15 -12 0 -48 -7
-80 -15 -63 -17 -225 -19 -288 -5 -152 34 -176 43 -265 91 -207 111 -351 298
-425 552 -22 79 -23 312 0 376 8 24 15 52 15 61 0 10 6 31 14 47 8 15 24 48
35 73 38 79 80 139 150 213 45 48 142 127 171 140 8 4 30 16 49 28 61 36 190
78 271 88 93 10 277 2 317 -14z"/>
<path d="M2940 3595 c-156 -29 -299 -132 -378 -273 -41 -73 -79 -245 -68 -303
4 -19 11 -57 15 -85 11 -66 54 -155 107 -225 43 -56 142 -139 167 -139 7 0 18
-5 25 -12 30 -30 90 -42 229 -45 114 -3 148 -1 172 11 17 9 39 16 49 16 11 0
25 7 32 15 7 8 21 15 32 15 26 0 208 182 208 207 0 10 5 24 12 31 19 19 40 84
47 147 3 33 10 65 14 72 10 15 -11 143 -35 218 -11 33 -30 74 -44 92 -13 17
-24 36 -24 41 0 19 -139 140 -186 162 -27 12 -58 27 -69 33 -24 13 -146 33
-200 34 -22 0 -69 -5 -105 -12z"/>
</g>
</svg>
